<?xml version="1.0" encoding="utf-8"?>
<!-- Generator: Adobe Illustrator 22.0.1, SVG Export Plug-In . SVG Version: 6.00 Build 0)  -->
<svg version="1.1" id="Слой_1" xmlns="http://www.w3.org/2000/svg" xmlns:xlink="http://www.w3.org/1999/xlink" x="0px" y="0px"
	 viewBox="0 0 92.9 95" style="enable-background:new 0 0 92.9 95;" xml:space="preserve">
<g>
	<defs>
		<rect id="SVGID_1_" width="92.9" height="95"/>
	</defs>
	<clipPath id="SVGID_2_">
		<use xlink:href="#SVGID_1_"  style="overflow:visible;"/>
	</clipPath>
	<path d="M33.6,52.4c0-1.2-0.9-2.1-2.1-2.1h-7.6c-1.2,0-2.1,1-2.1,2.1v7.5c0,1.2,1,2.2,2.1,2.2c0,0,0,0,0,0h7.6
		c1.2,0,2.1-1,2.1-2.1c0,0,0,0,0,0L33.6,52.4L33.6,52.4z"/>
	<path d="M52.4,52.4c0-1.2-1-2.1-2.2-2.1h-7.5c-1.2,0-2.2,1-2.2,2.1v7.5c0,1.2,1,2.2,2.2,2.2h7.5c1.2,0,2.2-1,2.2-2.2
		V52.4z"/>
	<path d="M71.2,52.4c0-1.2-1-2.1-2.2-2.1h-7.6c-1.2,0-2.2,1-2.2,2.1v7.5c0,1.2,1,2.2,2.1,2.2c0,0,0,0,0,0H69
		c1.2,0,2.2-1,2.2-2.1c0,0,0,0,0,0L71.2,52.4z"/>
	<path d="M33.6,71.2c0-1.2-0.9-2.1-2.1-2.2h-7.6c-1.2,0-2.1,1-2.1,2.2v7.5c0,1.2,1,2.2,2.1,2.2h7.6c1.2,0,2.1-1,2.1-2.2
		L33.6,71.2L33.6,71.2z"/>
	<path d="M52.4,71.2c0-1.2-1-2.2-2.2-2.2h-7.5c-1.2,0-2.2,1-2.2,2.2v7.5c0,1.2,1,2.2,2.2,2.2h7.5c1.2,0,2.2-1,2.2-2.2
		V71.2z"/>
	<path d="M71.2,71.2c0-1.2-1-2.2-2.2-2.2h-7.6c-1.2,0-2.2,1-2.2,2.2v7.5c0,1.2,1,2.2,2.2,2.2H69c1.2,0,2.2-1,2.2-2.2
		L71.2,71.2L71.2,71.2z"/>
	<path d="M84.6,10.6v11.5c0,5.2-4.2,9.4-9.3,9.4c0,0,0,0-0.1,0h-5.9c-5.2,0-9.4-4.2-9.5-9.4V10.5H33.1v11.6
		c0,5.2-4.2,9.4-9.5,9.4c0,0,0,0,0,0h-5.9c-5.2,0-9.4-4.2-9.4-9.4c0,0,0,0,0,0V10.6C3.7,10.7,0,14.5,0,19.1v67.3
		C0,91.1,3.8,95,8.5,95h75.9c4.7,0,8.5-3.9,8.5-8.6V19.1C92.9,14.5,89.2,10.7,84.6,10.6 M81.9,82.2c0,2-1.6,3.7-3.7,3.7H14.6
		c-2,0-3.7-1.6-3.7-3.7V47.5c0-2,1.6-3.7,3.7-3.7h63.6c2,0,3.7,1.6,3.7,3.7V82.2z"/>
	<path d="M17.7,25.3h5.9c1.8,0,3.2-1.4,3.2-3.2c0,0,0,0,0,0V3.2c0-1.8-1.4-3.2-3.2-3.2c0,0,0,0,0,0h-5.9
		c-1.8,0-3.2,1.5-3.2,3.2v18.8C14.4,23.8,15.9,25.3,17.7,25.3"/>
	<path d="M69.2,25.3h5.9c1.8,0,3.2-1.4,3.2-3.2V3.2c0-1.8-1.4-3.2-3.2-3.2h-5.9C67.4,0,66,1.4,66,3.2c0,0,0,0,0,0v18.8
		C66,23.8,67.4,25.3,69.2,25.3C69.2,25.3,69.2,25.3,69.2,25.3"/>
</g>
</svg>
