<?xml version="1.0" encoding="utf-8"?>
<!-- Generator: Adobe Illustrator 22.0.1, SVG Export Plug-In . SVG Version: 6.00 Build 0)  -->
<svg version="1.1" xmlns="http://www.w3.org/2000/svg" xmlns:xlink="http://www.w3.org/1999/xlink" x="0px" y="0px"
	 viewBox="0 0 81.3 79.5" style="enable-background:new 0 0 81.3 79.5;" xml:space="preserve">
<style type="text/css">
	.st0{
		clip-path:url(#SVGID_2_);
		fill: white;
		}
</style>
<g>
	<defs>
		<rect id="SVGID_1_" y="0" width="81.3" height="79.5"/>
	</defs>
	<clipPath id="SVGID_2_">
		<use xlink:href="#SVGID_1_"  style="overflow:visible;"/>
	</clipPath>
	<path class="st0" d="M42.2,0C20.6,0,3.1,13.9,3.1,31.1s17.5,31.1,39.1,31.1c3.8,0,7.5-0.4,11.2-1.3l10.8,8.6c0.6,0.5,1.3,0.7,2,0.7
		c0.5,0,0.9-0.1,1.4-0.3c1.1-0.5,1.8-1.6,1.8-2.8V53.5c7.6-5.8,12-13.9,12-22.4C81.3,13.9,63.7,0,42.2,0 M59.4,40.6H25
		c-1.7,0-3.1-1.4-3.1-3.1c0-1.7,1.4-3.1,3.1-3.1h34.4c1.7,0,3.1,1.4,3.1,3.1C62.5,39.2,61.1,40.6,59.4,40.6 M59.4,28.1H25
		c-1.7,0-3.1-1.4-3.1-3.1c0-1.7,1.4-3.1,3.1-3.1h34.4c1.7,0,3.1,1.4,3.1,3.1C62.5,26.7,61.1,28.1,59.4,28.1"/>
	<path class="st0" d="M3.3,44.5c-2.1,3-3.3,6.4-3.3,10C0,59.9,2.6,65,7.3,68.7v7.7c0,1.2,0.7,2.3,1.8,2.8c0.4,0.2,0.9,0.3,1.4,0.3
		c0.7,0,1.4-0.2,2-0.7l6.1-4.9c2.1,0.5,4.3,0.7,6.5,0.7c8.7,0,16.5-3.5,21-9.2c-1.3,0.1-2.5,0.1-3.8,0.1
		C24.7,65.6,9.7,56.9,3.3,44.5"/>
</g>
</svg>
