<?xml version="1.0" encoding="utf-8"?>
<svg version="1.1"  xmlns="http://www.w3.org/2000/svg" xmlns:xlink="http://www.w3.org/1999/xlink" x="0px" y="0px"
	 viewBox="0 0 76.1 66.6" style="enable-background:new 0 0 76.1 66.6;" xml:space="preserve">

<g>
	<defs>
		<rect id="SVGID_1_" y="0" width="76.1" height="66.6"/>
	</defs>
	<clipPath id="SVGID_2_">
		<use xlink:href="#SVGID_1_"  style="overflow:visible;"/>
	</clipPath>
	<path d="M73.8,9.8l-3.9-2.2c-2.2-1.2-4.9-0.4-6.1,1.7L53.6,27.4V2.1V1.8c-0.1-1-0.9-1.8-1.9-1.8H9.5
		C7.1,0,4.8,0.7,2.9,2.2C1,3.8-0.1,6.1,0,8.6v49.9v0.2v0.4c0.1,2.2,1.2,4.2,3,5.5c1.9,1.3,4.2,2,6.5,2h42.3c1,0,1.8-0.8,1.9-1.8
		v-0.3V54.3l0.5-0.7l21.2-37.5c1.3-2.1,0.7-4.9-1.4-6.2C73.9,9.9,73.9,9.8,73.8,9.8 M67.7,10.7H68l4,2.3c0.3,0.2,0.4,0.6,0.2,1
		l-0.7,1.2l-5.1-2.8l0.7-1.2C67.2,10.9,67.5,10.7,67.7,10.7 M13.5,3.7h8.6V20l-3.6-1.7l-0.8-0.2l-0.8,0.2L13.5,20V3.7z M9.4,3.7h0.3
		V23c0,1,0.9,1.9,1.9,1.9c0.3,0,0.5-0.1,0.8-0.2l5.3-2.6l5.4,2.6l0.8,0.2c1,0,1.9-0.9,1.9-1.9V3.8h24.1v30.1L42.5,47
		c-0.3,0.5-0.5,1-0.5,1.6l-0.3,2.3H9.5c-2,0-4.1,0.5-5.8,1.6V8.6c0-1.4,0.5-2.7,1.6-3.5C5.3,5.1,7.1,3.7,9.4,3.7 M45.4,51.3l3.5,2
		l-4.2,3.4L45.4,51.3z M9.4,63c-1.5,0-3-0.4-4.3-1.3c-0.9-0.6-1.4-1.5-1.5-2.5v-0.4v-0.3c0-2.1,2.7-3.9,5.8-3.9h31.8L41,56.7v0.2
		c-0.1,2,1.4,3.7,3.4,3.8h0.2c0.7,0,1.4-0.2,2-0.6h0.1l3.3-2.6V63H9.4 M51.6,50.5l-5.1-2.9l18.1-32l5.1,2.9L51.6,50.5z"/>
</g>
</svg>
