<svg width="22" height="22" viewBox="0 0 65 65" preserveAspectRatio="none">
<g>
<path d="M64,22.5C64,15.6,58.4,10,51.5,10c-3.3,0-6.5,1.3-8.8,3.6L16,40.3V58h17.7l26.7-26.7C62.7,29,64,25.8,64,22.5M54.7,25.7L30.3,50H24v-6.3l24.3-24.4c1.7-1.8,4.5-2,6.3-0.4c1.8,1.7,2,4.5,0.4,6.3C54.9,25.4,54.8,25.5,54.7,25.7" />
<path d="M2,16h4c1.1,0,2,0.9,2,2v4c0,1.1-0.9,2-2,2H2c-1.1,0-2-0.9-2-2v-4C0,16.9,0.9,16,2,16" />
<path d="M18,16h4c1.1,0,2,0.9,2,2v4c0,1.1-0.9,2-2,2h-4c-1.1,0-2-0.9-2-2v-4C16,16.9,16.9,16,18,16" />
<path d="M2,0h4c1.1,0,2,0.9,2,2v4c0,1.1-0.9,2-2,2H2C0.9,8,0,7.1,0,6V2C0,0.9,0.9,0,2,0" />
<path d="M18,0h4c1.1,0,2,0.9,2,2v4c0,1.1-0.9,2-2,2h-4c-1.1,0-2-0.9-2-2V2C16,0.9,16.9,0,18,0" />
<path d="M34,0h4c1.1,0,2,0.9,2,2v4c0,1.1-0.9,2-2,2h-4c-1.1,0-2-0.9-2-2V2C32,0.9,32.9,0,34,0" />
<path d="M2,32h4c1.1,0,2,0.9,2,2v4c0,1.1-0.9,2-2,2H2c-1.1,0-2-0.9-2-2v-4C0,32.9,0.9,32,2,32" />
<rect x="27.6" y="32.1" transform="matrix(0.7071 -0.7071 0.7071 0.7071 -19.614 34.1128)" width="7.6" height="17.2"/>
</g>
</svg>