<svg width="46" height="46" viewBox="0 0 80 80" preserveAspectRatio="none" className="icon-expenses">
<g>
<path d="M39.1,28.2H7.8c-0.9,0-1.6,0.7-1.6,1.6v9.4c0,0.9,0.7,1.6,1.6,1.6h31.3c0.9,0,1.6-0.7,1.6-1.6v-9.4 C40.6,28.9,39.9,28.2,39.1,28.2 M37.5,37.6H9.4v-6.3h28.1V37.6z"/>
<path d="M10.9,43.8c-2.6,0-4.7,2.1-4.7,4.7c0,2.6,2.1,4.7,4.7,4.7s4.7-2.1,4.7-4.7C15.6,45.9,13.5,43.8,10.9,43.8M10.9,50.1c-0.9,0-1.6-0.7-1.6-1.6c0-0.9,0.7-1.6,1.6-1.6c0.9,0,1.6,0.7,1.6,1.6C12.5,49.4,11.8,50.1,10.9,50.1"/>
<path d="M23.4,43.8c-2.6,0-4.7,2.1-4.7,4.7c0,2.6,2.1,4.7,4.7,4.7s4.7-2.1,4.7-4.7C28.1,45.9,26,43.8,23.4,43.8M23.4,50.1c-0.9,0-1.6-0.7-1.6-1.6c0-0.9,0.7-1.6,1.6-1.6c0.9,0,1.6,0.7,1.6,1.6C25,49.4,24.3,50.1,23.4,50.1"/>
<path d="M35.9,43.8c-2.6,0-4.7,2.1-4.7,4.7c0,2.6,2.1,4.7,4.7,4.7c2.6,0,4.7-2.1,4.7-4.7 C40.6,45.9,38.5,43.8,35.9,43.8 M35.9,50.1c-0.9,0-1.6-0.7-1.6-1.6c0-0.9,0.7-1.6,1.6-1.6c0.9,0,1.6,0.7,1.6,1.6 C37.5,49.4,36.8,50.1,35.9,50.1"/>
<path d="M10.9,54.7c-2.6,0-4.7,2.1-4.7,4.7c0,2.6,2.1,4.7,4.7,4.7s4.7-2.1,4.7-4.7C15.6,56.8,13.5,54.7,10.9,54.7M10.9,61c-0.9,0-1.6-0.7-1.6-1.6c0-0.9,0.7-1.6,1.6-1.6c0.9,0,1.6,0.7,1.6,1.6C12.5,60.3,11.8,61,10.9,61"/>
<path d="M23.4,54.7c-2.6,0-4.7,2.1-4.7,4.7c0,2.6,2.1,4.7,4.7,4.7s4.7-2.1,4.7-4.7C28.1,56.8,26,54.7,23.4,54.7M23.4,61c-0.9,0-1.6-0.7-1.6-1.6c0-0.9,0.7-1.6,1.6-1.6c0.9,0,1.6,0.7,1.6,1.6C25,60.3,24.3,61,23.4,61"/>
<path d="M35.9,54.7c-2.6,0-4.7,2.1-4.7,4.7c0,2.6,2.1,4.7,4.7,4.7c2.6,0,4.7-2.1,4.7-4.7 C40.6,56.8,38.5,54.7,35.9,54.7 M35.9,61c-0.9,0-1.6-0.7-1.6-1.6c0-0.9,0.7-1.6,1.6-1.6c0.9,0,1.6,0.7,1.6,1.6 C37.5,60.3,36.8,61,35.9,61"/>
<path d="M10.9,65.7c-2.6,0-4.7,2.1-4.7,4.7c0,2.6,2.1,4.7,4.7,4.7s4.7-2.1,4.7-4.7C15.6,67.8,13.5,65.7,10.9,65.7M10.9,71.9c-0.9,0-1.6-0.7-1.6-1.6c0-0.9,0.7-1.6,1.6-1.6c0.9,0,1.6,0.7,1.6,1.6C12.5,71.2,11.8,71.9,10.9,71.9"/>
<path d="M23.4,65.7c-2.6,0-4.7,2.1-4.7,4.7c0,2.6,2.1,4.7,4.7,4.7s4.7-2.1,4.7-4.7C28.1,67.8,26,65.7,23.4,65.7M23.4,71.9c-0.9,0-1.6-0.7-1.6-1.6c0-0.9,0.7-1.6,1.6-1.6c0.9,0,1.6,0.7,1.6,1.6C25,71.2,24.3,71.9,23.4,71.9"/>
<path d="M35.9,65.7c-2.6,0-4.7,2.1-4.7,4.7c0,2.6,2.1,4.7,4.7,4.7c2.6,0,4.7-2.1,4.7-4.7 C40.6,67.8,38.5,65.7,35.9,65.7 M35.9,71.9c-0.9,0-1.6-0.7-1.6-1.6c0-0.9,0.7-1.6,1.6-1.6c0.9,0,1.6,0.7,1.6,1.6 C37.5,71.2,36.8,71.9,35.9,71.9"/>
<path d="M42.2,21.9H4.7C2.1,21.9,0,24,0,26.6v50c0,2.6,2.1,4.7,4.7,4.7h37.5c2.6,0,4.7-2.1,4.7-4.7v-50 C46.9,24,44.8,21.9,42.2,21.9 M43.8,76.6c0,0.9-0.7,1.6-1.6,1.6H4.7c-0.9,0-1.6-0.7-1.6-1.6v-50c0-0.9,0.7-1.6,1.6-1.6h37.5 c0.9,0,1.6,0.7,1.6,1.6V76.6z"/>
<path d="M64.6,1c-2.2-0.7-4.4-1-6.7-1c-9.7,0-18.1,6.3-21.1,15.6c-0.7,2.3-1,4.7-1,7c0.3,0,0.6,0,0.9,0.1 c1.8,0.4,3.4,0.8,5.2,0.7c2.3-0.2,3.9,2,4.1,4.1c0.3,4.5-0.5,9-0.5,13.4c1.7,1.2,3.6,2.1,5.7,2.8c2.2,0.7,4.4,1,6.7,1 c9.7,0,18.1-6.3,21.1-15.6C82.7,17.4,76.2,4.8,64.6,1 M59.2,30l0,2.9l-1.7,0l0-2.8c-1.6,0-3.2-0.5-4.2-1.2l0.6-1.9 c1,0.7,2.4,1.2,4,1.1c1.9,0,3.2-1.2,3.2-2.8c0-1.5-1.1-2.5-3.1-3.3c-2.8-1.1-4.6-2.3-4.6-4.7c0-2.3,1.6-4.1,4.1-4.5l0-2.8l1.7,0 l0,2.7c1.6,0,2.8,0.5,3.6,0.9L62,15.5c-0.6-0.3-1.7-0.9-3.5-0.9c-2.1,0-2.9,1.3-2.9,2.4c0,1.4,1,2.2,3.4,3.1c2.8,1.1,4.3,2.6,4.3,5 C63.5,27.4,62,29.5,59.2,30"/>
</g>
</svg>
