<?xml version="1.0" encoding="utf-8"?>
<!-- Generator: Adobe Illustrator 26.0.3, SVG Export Plug-In . SVG Version: 6.00 Build 0)  -->
<svg fill="#9e1e87" version="1.1" id="Layer_1" xmlns="http://www.w3.org/2000/svg" xmlns:xlink="http://www.w3.org/1999/xlink" x="0px" y="0px"
	 viewBox="0 0 100 73.6" style="enable-background:new 0 0 100 73.6;" xml:space="preserve">
<path id="path-fast-fact" d="M66.7,13.2H33.3c-4.6,0-8.3,3.7-8.3,8.3c0,0,0,0,0,0V41c0,4.6,3.7,8.3,8.3,8.3l4.2,0l-4.2,11.1l18.1-11.1l15.3,0
	c4.6,0,8.3-3.7,8.3-8.3v-1.4V21.5c0,0,0,0,0,0C75,16.9,71.3,13.2,66.7,13.2z M47.2,42.1l-8.9-8.9l3.9-3.9l5,5l12.6-12.6l3.9,3.9
	L47.2,42.1z"/>
</svg>
