<svg width="41" height="41" viewBox="0 0 100 100" preserveAspectRatio="none">
<g>
<path d="M46.8,6.7v3.4v8.8v12.5v14.3v14.3v12.5v8.9c0,1.2-0.1,2.3,0,3.5c0,0.2,0,0.1,0,0c0.1-0.4,0,0,0,0.1 c0,0.3-0.1-0.1,0.1-0.2c0,0-0.1,0.2-0.1,0.2c-0.2,0.4,0.3-0.3,0.1-0.1c-0.2,0.3-0.2,0,0.1,0c0,0-0.3,0.2-0.3,0.2 c0,0,0.5-0.2,0.2-0.1c0,0-0.2,0-0.3,0.1c0.1-0.1,0.5,0,0.2,0h-0.1h-1.4h-6c-3.7,0-7.4,0-11.2,0h-0.1h0c-0.3,0,0-0.1,0.2,0 c0,0-0.4-0.1-0.4-0.1c0.1,0,0.5,0.3,0.2,0.1c0,0-0.2-0.1-0.2-0.1c0.3,0,0.3,0.3,0.1,0c-0.2-0.2,0.3,0.5,0.1,0.1 c0,0-0.1-0.2-0.1-0.2c0.2,0.1,0.1,0.4,0.1,0.2c0-0.1-0.2-0.5,0-0.1c0,0.2,0,0.2,0,0v-0.2V83v-7.7V63.6V49.5V35V21.9v-10V7V6.7 c0-0.5-0.1,0.4,0,0.1c0,0,0.1-0.3,0.1-0.3c0,0.1-0.3,0.5-0.1,0.2c0,0,0.1-0.2,0.1-0.2c0,0.3-0.3,0.3,0,0.1c0.2-0.2-0.5,0.3-0.1,0.1 c0,0,0.1,0,0.1-0.1C28,6.5,28,6.5,27.7,6.6c0,0,0.3-0.1,0.3-0.1c0.3-0.1-0.1,0-0.2,0c0.1,0,0.1,0,0.1,0H28c1.4,0,2.7,0,4.1,0h13 h1.4h0.1c0.4,0-0.5-0.1,0,0c0.4,0.1,0,0.1-0.1-0.1C46.5,6.5,46.8,6.6,46.8,6.7c0.3,0.1-0.2-0.1-0.2-0.2c0-0.1,0.3,0.5,0.1,0.1 C46.5,6.3,46.7,6.6,46.8,6.7c0.1,0.2-0.2,0-0.1-0.2C46.7,6.5,46.7,6.7,46.8,6.7C46.9,7.2,46.8,6.2,46.8,6.7c0,1.2,1,2.3,2.2,2.2 c1.2,0,2.2-1,2.2-2.2c-0.1-2.5-2-4.4-4.5-4.5c-0.4,0-0.7,0-1.1,0h-5.8H28.1c-2.6,0-4.7,2-4.7,4.6v1.4v7.4v11.7v14.2v14.8v13.4v10.1 v5c0,0.1,0,0.3,0,0.4c0.2,2.4,2.1,4.2,4.5,4.3c1.2,0,2.4,0,3.7,0h13.3h1.6c1.6,0,3-0.7,4-2.1c0.6-0.9,0.7-2,0.7-3.1v-6V67.5V53.8 V39V25V14V7.6V6.7c0-1.2-1-2.2-2.2-2.2C47.8,4.6,46.8,5.5,46.8,6.7"/>
<path d="M46.8,6.7v10.2v1.5l2.2-2.2h-7.9H28.5h-2.9l2.2,2.2v-6.8v-4c0-0.3,0-0.6,0-0.8c0,0,0-0.1,0-0.2 c0,0-0.1,0.5,0,0.3c0-0.1,0-0.1,0-0.2c0-0.1,0.1-0.3,0,0c-0.1,0.3,0,0,0,0c0,0,0.1-0.1,0.1-0.2c0,0-0.2,0.4-0.1,0.2 c0,0,0.1-0.1,0.1-0.1c0,0-0.4,0.2-0.2,0.1c0.1,0,0.5-0.2,0.1-0.1c-0.3,0.1,0.2,0,0.2,0c-0.1,0-0.5,0-0.2,0H28h0.3h1h3.7h9.3h3.4 h0.8h0.1c0.4,0-0.4-0.1,0,0C46.6,6.6,46.7,6.6,46.8,6.7c0.2-0.1-0.2-0.1-0.2-0.2C46.6,6.6,47.1,6.9,46.8,6.7 c-0.4-0.3,0.2,0.2,0-0.1C46.5,6.3,46.7,6.7,46.8,6.7c0.2,0.2-0.1-0.2-0.1-0.2C46.7,6.5,46.8,6.7,46.8,6.7 C46.9,7.2,46.8,6.3,46.8,6.7c0,1.2,1,2.3,2.2,2.2c1.2,0,2.2-1,2.2-2.2c-0.1-2.6-2.1-4.5-4.7-4.5h-2.6h-9.5c-2.1,0-4.2,0-6.4,0 c-2.6,0-4.5,2.1-4.6,4.6c0,1,0,2.1,0,3.1c0,2.8,0,5.5,0,8.3v0.2c0,1.2,1,2.2,2.2,2.2h7.9h12.6H49c1.2,0,2.2-1,2.2-2.2V8.2V6.7 c0-1.2-1-2.2-2.2-2.2C47.8,4.6,46.8,5.5,46.8,6.7"/>
<path d="M40.2,75.4c0,0.1,0,0.3,0,0.4c0,0.5,0.1-0.5,0-0.1c0,0.2-0.1,0.4-0.2,0.6c0,0.1-0.2,0.4,0,0.1 c0.2-0.3,0,0,0,0.1c-0.1,0.2-0.3,0.4-0.4,0.7c-0.2,0.4,0.3-0.4,0,0c-0.1,0.1-0.1,0.1-0.2,0.2c-0.1,0.1-0.2,0.2-0.3,0.3 c0,0-0.1,0.1-0.1,0.1c-0.2,0.1-0.1,0.1,0.1-0.1c-0.2,0.1-0.4,0.3-0.5,0.4c-0.1,0-0.2,0.1-0.3,0.1c-0.5,0.3,0.4-0.1,0,0 c-0.2,0.1-0.4,0.1-0.6,0.2c-0.2,0-0.5,0,0.1,0c-0.1,0-0.2,0-0.3,0c-0.2,0-0.6-0.1-0.8,0c0,0,0.6,0.1,0.2,0c-0.2,0-0.3-0.1-0.5-0.1 c-0.1,0-0.2-0.1-0.2-0.1c-0.4-0.1,0.5,0.2,0,0c-0.2-0.1-0.4-0.2-0.6-0.3c-0.1-0.1-0.2-0.2-0.3-0.2c0.3,0.1,0.3,0.3,0.1,0.1 c-0.2-0.2-0.4-0.4-0.6-0.6c-0.2-0.2,0.3,0.5,0.1,0.1c-0.1-0.1-0.1-0.2-0.2-0.3c-0.1-0.2-0.2-0.4-0.3-0.6c0.3,0.4,0.1,0.3,0,0 c0-0.1,0-0.2-0.1-0.3c0-0.1-0.1-0.3-0.1-0.4c-0.1-0.4,0,0.5,0,0.1c0-0.3,0-0.5,0-0.8c0-0.3,0.1-0.2,0,0.1c0-0.1,0-0.3,0.1-0.4 c0-0.2,0.2-0.5,0.2-0.6c0,0.1-0.1,0.2-0.1,0.3c0-0.1,0.1-0.2,0.1-0.2c0.1-0.1,0.1-0.2,0.2-0.3c0.1-0.1,0.1-0.2,0.2-0.3 c0.2-0.3-0.1,0.1-0.1,0.1c0.2-0.1,0.4-0.4,0.5-0.6c0,0,0.2-0.1,0.2-0.2c-0.1,0.1-0.2,0.1-0.2,0.2l0.2-0.1c0.2-0.1,0.4-0.3,0.7-0.4 c0.4-0.2-0.4,0.1-0.1,0c0.1,0,0.2-0.1,0.3-0.1c0.2-0.1,0.5-0.1,0.6-0.1c-0.1,0-0.2,0-0.3,0c0.1,0,0.2,0,0.3,0c0.1,0,0.3,0,0.4,0 c0.1,0,0.2,0,0.3,0c0.2,0,0.2,0-0.2,0c0.1,0,0.2,0,0.3,0c0.2,0,0.6,0.2,0.8,0.2c-0.2,0-0.4-0.2-0.2-0.1c0.2,0.1,0.3,0.2,0.4,0.2 c0.1,0.1,0.2,0.1,0.3,0.2c0.4,0.3-0.3-0.3,0,0c0.2,0.2,0.4,0.4,0.5,0.5c0.3,0.3-0.3-0.4,0,0c0.1,0.1,0.1,0.2,0.2,0.3 c0.1,0.1,0.1,0.2,0.2,0.3c0,0.1,0.1,0.1,0.1,0.2c0.1,0.2,0,0.1-0.1-0.2c0,0.2,0.2,0.5,0.2,0.8c0,0,0,0.1,0,0.1c0,0.2,0,0.2,0-0.2 C40.1,75,40.2,75.2,40.2,75.4c0,1.2,1,2.2,2.2,2.2c1.2,0,2.2-1,2.2-2.2c0-3.2-2-5.8-4.9-6.9c-2.7-1-6.1-0.1-7.9,2.1 c-2,2.4-2.4,5.8-0.8,8.5c1.6,2.7,4.8,4,7.8,3.4c3.4-0.6,5.8-3.8,5.8-7.2c0-1.2-1-2.2-2.2-2.2C41.2,73.2,40.2,74.1,40.2,75.4"/>
<path d="M23.4,21.5v3v7.8v10.9v12.3v12v10v6.2c0,0.4,0,0.8,0,1.2V85c0,0-1.5-2.7,0,0.1c0-0.1,0.1-0.5,0-0.2 c0,0,0,0.1,0,0.2c0,0.3,0.2-0.4,0.1-0.2c0,0.1-0.1,0.1-0.1,0.2c-0.1,0.2,0.3-0.4,0.1-0.1c0,0-0.1,0.1-0.1,0.1 c0.3-0.2,0.3-0.2,0.2-0.1c0,0-0.1,0.1-0.2,0.1c-0.2,0.2,0-0.1,0.2-0.1c0,0-0.2,0-0.2,0.1c-0.5,0.1,0.4,0,0,0h0h-0.3h-9.8 c-2.9,0-5.7-0.1-8.6,0h0c-0.4,0,0.3,0.1,0.1,0c-0.1,0-0.2-0.1-0.3-0.1c-0.2,0,0.4,0.3,0.1,0c0,0-0.2-0.1-0.2-0.1 c0.2,0,0.4,0.3,0.2,0.1c-0.2-0.2,0.1,0,0.1,0.2c0,0-0.1-0.2-0.1-0.2c-0.2-0.2,0.1,0,0.1,0.2c0,0,0-0.2-0.1-0.2c-0.1-0.5,0,0.4,0,0 v-0.2v-1.5v-6.8V66.1V54V41.7V31.1v-7.3V22v-0.4v0c0-0.4-0.1,0.5,0,0c0-0.1,0.1-0.4,0,0c-0.1,0.3,0,0,0,0c0.1-0.1,0.2-0.3,0,0 c-0.2,0.3-0.1,0,0,0c0.2-0.1-0.2,0.1-0.2,0.1c0,0,0.3-0.2,0.3-0.2c0,0.1-0.5,0.2-0.2,0.1c0.1,0,0.1,0,0.2,0c0.2-0.1-0.5,0-0.1,0 h0.1H5h1.5h5.2h10.6c0.3,0,0.6,0,0.9,0h0c0.4,0-0.4-0.1-0.1,0C23.2,21.4,23.3,21.4,23.4,21.5c0.3,0-0.2-0.1-0.2-0.2 C23.2,21.4,23.4,21.5,23.4,21.5c0.3,0.1-0.1-0.1-0.1-0.2C23.3,21.4,23.5,21.5,23.4,21.5c0,0-0.2-0.4-0.1-0.1 C23.4,21.4,23.5,21.6,23.4,21.5c0,0.1-0.1-0.3,0-0.1c0,0.1,0,0.2,0.1,0.3C23.5,21.9,23.4,21.1,23.4,21.5c0,1.2,1,2.3,2.2,2.2 c1.2,0,2.2-1,2.2-2.2c-0.1-2.4-1.9-4.3-4.3-4.5c-0.3,0-0.5,0-0.8,0h-4.2H6.8c-0.8,0-1.7,0-2.6,0C1.7,17.2,0,19.3,0,21.7v4.5v9V47 v12.6v11.7v9v4.5c0,2.5,1.9,4.6,4.4,4.7c0.8,0,1.6,0,2.5,0h11.7h4.1c0.5,0,0.9,0,1.4-0.1c2.1-0.3,3.6-2.3,3.7-4.4 c0-1.1,0-2.1,0-3.2v-8.1V62.4V49.9V37.8V28v-5.7v-0.8c0-1.2-1-2.2-2.2-2.2C24.4,19.4,23.4,20.3,23.4,21.5"/>
<path d="M23.4,21.5v10.2v1.5l2.2-2.2h-7.9H5.1H2.2l2.2,2.2v-6.8v-4c0-0.3,0-0.6,0-0.8c0,0,0-0.1,0-0.2 c0,0-0.1,0.5,0,0.3c0-0.1,0-0.1,0-0.2c0-0.1,0.1-0.3,0,0c-0.1,0.3,0,0,0,0c0,0,0.1-0.1,0.1-0.2c0,0-0.2,0.4-0.1,0.2 c0,0,0.1-0.1,0.1-0.1c0,0-0.4,0.2-0.2,0.1c0.1,0,0.5-0.2,0.1-0.1c-0.3,0.1,0.2,0,0.2,0c-0.1,0-0.5,0-0.2,0h0.1h0.3h1h3.7h9.3h3.4 h0.9h0.1c0.4,0-0.4-0.1,0,0C23.3,21.4,23.4,21.4,23.4,21.5c0.2-0.1-0.2-0.1-0.2-0.2C23.2,21.4,23.7,21.7,23.4,21.5 c-0.4-0.3,0.2,0.2,0-0.1C23.1,21.1,23.4,21.5,23.4,21.5c0.2,0.2-0.1-0.2-0.1-0.2C23.3,21.3,23.4,21.5,23.4,21.5 C23.5,22,23.4,21.1,23.4,21.5c0,1.2,1,2.3,2.2,2.2c1.2,0,2.2-1,2.2-2.2c-0.1-2.6-2.1-4.5-4.7-4.5h-2.6h-9.5c-2.1,0-4.2,0-6.4,0 C2,17.1,0,19.1,0,21.6c0,1,0,2.1,0,3.1c0,2.8,0,5.5,0,8.3v0.2c0,1.2,1,2.2,2.2,2.2h7.9h12.6h2.9c1.2,0,2.2-1,2.2-2.2V23v-1.5 c0-1.2-1-2.2-2.2-2.2C24.4,19.4,23.4,20.3,23.4,21.5"/>
<path d="M16.8,75.4c0,0.1,0,0.3,0,0.4c0,0.5,0.1-0.5,0-0.1c0,0.2-0.1,0.4-0.2,0.6c0,0.1-0.2,0.4,0,0.1 c0.2-0.3,0,0,0,0.1c-0.1,0.2-0.3,0.4-0.4,0.7c-0.2,0.4,0.3-0.4,0,0c-0.1,0.1-0.1,0.1-0.2,0.2c-0.1,0.1-0.2,0.2-0.3,0.3 c0,0-0.1,0.1-0.1,0.1c-0.2,0.1-0.1,0.1,0.1-0.1c-0.2,0.1-0.4,0.3-0.5,0.4c-0.1,0-0.2,0.1-0.3,0.1c-0.5,0.3,0.4-0.1,0,0 c-0.2,0.1-0.4,0.1-0.6,0.2c-0.2,0-0.5,0,0.1,0c-0.1,0-0.2,0-0.3,0c-0.2,0-0.6-0.1-0.8,0c0,0,0.6,0.1,0.2,0c-0.2,0-0.3-0.1-0.5-0.1 c-0.1,0-0.2-0.1-0.2-0.1c-0.4-0.1,0.5,0.2,0,0c-0.2-0.1-0.4-0.2-0.6-0.3c-0.1-0.1-0.2-0.2-0.3-0.2c0.3,0.1,0.3,0.3,0.1,0.1 c-0.2-0.2-0.4-0.4-0.6-0.6c-0.2-0.2,0.3,0.5,0.1,0.1c-0.1-0.1-0.1-0.2-0.2-0.3c-0.1-0.2-0.2-0.4-0.3-0.6c0.3,0.4,0.1,0.3,0,0 c0-0.1,0-0.2-0.1-0.3c0-0.1-0.1-0.3-0.1-0.4c-0.1-0.4,0,0.5,0,0.1c0-0.3,0-0.5,0-0.8c0-0.3,0.1-0.2,0,0.1c0-0.1,0-0.3,0.1-0.4 c0-0.2,0.2-0.5,0.2-0.6c0,0.1-0.1,0.2-0.1,0.3c0-0.1,0.1-0.2,0.1-0.2c0.1-0.1,0.1-0.2,0.2-0.3c0.1-0.1,0.1-0.2,0.2-0.3 c0.2-0.3-0.1,0.1-0.1,0.1c0.2-0.1,0.4-0.4,0.5-0.6c0,0,0.2-0.1,0.2-0.2c-0.1,0.1-0.2,0.1-0.2,0.2c0.1,0,0.1-0.1,0.2-0.1 c0.2-0.1,0.4-0.3,0.7-0.4c0.4-0.2-0.4,0.1-0.1,0c0.1,0,0.2-0.1,0.3-0.1c0.2-0.1,0.5-0.1,0.6-0.1c-0.1,0-0.2,0-0.3,0 c0.1,0,0.2,0,0.3,0c0.1,0,0.3,0,0.4,0c0.1,0,0.2,0,0.3,0c0.2,0,0.2,0-0.2,0c0.1,0,0.2,0,0.3,0c0.2,0,0.6,0.2,0.8,0.2 c-0.2,0-0.4-0.2-0.2-0.1c0.2,0.1,0.3,0.2,0.4,0.2c0.1,0.1,0.2,0.1,0.3,0.2c0.4,0.3-0.3-0.3,0,0c0.2,0.2,0.4,0.4,0.5,0.5 c0.3,0.3-0.3-0.4,0,0c0.1,0.1,0.1,0.2,0.2,0.3c0.1,0.1,0.1,0.2,0.2,0.3c0,0.1,0.1,0.1,0.1,0.2c0.1,0.2,0,0.1-0.1-0.2 c0,0.2,0.2,0.5,0.2,0.8c0,0,0,0.1,0,0.1c0,0.2,0,0.2,0-0.2C16.8,75,16.8,75.2,16.8,75.4c0,1.2,1,2.2,2.2,2.2c1.2,0,2.2-1,2.2-2.2 c0-3.2-2-5.8-4.9-6.9c-2.7-1-6.1-0.1-7.9,2.1c-2,2.4-2.4,5.8-0.8,8.5c1.6,2.7,4.8,4,7.8,3.4c3.4-0.6,5.8-3.8,5.8-7.2 c0-1.2-1-2.2-2.2-2.2C17.8,73.2,16.9,74.1,16.8,75.4"/>
<path d="M69.7,4.6c0.3,1.1,0.5,2.2,0.8,3.3c0.7,2.9,1.3,5.7,2,8.6c0.9,4,1.9,8.1,2.8,12.1c1.1,4.6,2.1,9.3,3.2,13.9 c1.1,4.7,2.1,9.3,3.2,14c0.9,4.1,1.9,8.2,2.8,12.2c0.7,2.9,1.3,5.8,2,8.7c0.3,1.1,0.5,2.3,0.8,3.4c0.1,0.4,0-0.2,0-0.2 c0,0-0.1,0.6,0,0.1c0.1-0.4,0,0,0,0.1c-0.1,0.3-0.1-0.1,0.1-0.2c0,0-0.1,0.2-0.1,0.2c0.2-0.2,0.3-0.3,0.1-0.2c0,0-0.1,0.1-0.1,0.1 c-0.3,0.3,0.1-0.1,0.1-0.1c0.1,0-0.5,0.2-0.1,0.1c0.4-0.1-0.1,0-0.1,0c0,0-0.1,0-0.1,0c-0.4,0.1-0.9,0.2-1.3,0.3 c-1.9,0.4-3.9,0.9-5.8,1.3c-3.6,0.8-7.3,1.7-10.9,2.5c0,0-0.1,0-0.1,0c0,0,0,0,0,0c0,0,0,0-0.1,0c0.1,0,0.2,0,0.3,0h-0.3 c0,0,0.5,0.1,0.2,0c0,0-0.2-0.1-0.3-0.1c0.1,0,0.5,0.2,0.1,0c-0.2-0.1,0.4,0.4,0.1,0.1c0-0.1-0.1-0.2-0.2-0.2 c0.3,0.2,0.2,0.3,0.1,0.1c-0.2-0.4,0.1,0.4,0,0.1c0,0.1-0.1-0.6-0.1-0.2c0-0.1,0-0.2-0.1-0.2c-0.1-0.6-0.3-1.1-0.4-1.7 c-0.6-2.5-1.1-5-1.7-7.5c-0.9-3.8-1.8-7.6-2.6-11.4c-1.1-4.6-2.1-9.1-3.2-13.7c-1.1-4.7-2.2-9.4-3.3-14.1c-1-4.3-2-8.5-2.9-12.8 c-0.7-3.2-1.5-6.5-2.2-9.7c-0.4-1.6-0.8-3.3-1.1-4.9c0-0.1,0-0.2-0.1-0.3c0,0,0.1,0.1,0-0.1c0.1,0.3,0,0.4,0,0.2 c0-0.5-0.1,0.4,0,0.1c0,0,0.1-0.3,0.1-0.3c0,0-0.2,0.5,0,0.2c0.2-0.3-0.1,0.1-0.1,0.1c0,0,0.3-0.3,0.3-0.3c0,0.1-0.4,0.3-0.1,0.1 c0.2-0.2-0.5,0.1-0.1,0c0,0,0.1,0,0.1,0c0,0,0.1,0,0.1,0c1.3-0.3,2.6-0.6,3.9-0.9c4.2-1,8.5-2,12.7-2.9c0.5-0.1,0.9-0.2,1.4-0.3 c0,0,0.1,0,0.1,0c0.4-0.1-0.3,0-0.1,0c0.4,0,0,0-0.1,0c0,0,0.3,0.1,0.3,0.1c0.4,0.1-0.2,0-0.2-0.1c0-0.1,0.4,0.4,0.1,0 C69.5,4.1,69.7,4.4,69.7,4.6c0.2,0.1,0,0.1,0-0.2C69.7,4.3,69.8,4.6,69.7,4.6c0-0.1,0-0.2,0-0.3C69.7,4.4,69.7,4.5,69.7,4.6 c0.3,1.1,1.6,1.9,2.7,1.5c1.1-0.4,1.8-1.5,1.5-2.7c-0.6-2.5-3.1-3.8-5.5-3.3c-0.4,0.1-0.7,0.2-1.1,0.2c-1.9,0.4-3.8,0.9-5.7,1.3 C58,2.6,54.2,3.4,50.4,4.3c-1.6,0.4-2.8,1.4-3.4,3C46.7,8.1,46.8,9,47,9.9c0.1,0.5,0.2,1,0.3,1.4c0.6,2.4,1.1,4.8,1.7,7.2 c0.9,3.8,1.8,7.6,2.6,11.4c1.1,4.6,2.1,9.2,3.2,13.8c1.1,4.8,2.2,9.6,3.3,14.3c1,4.3,2,8.7,3,13c0.8,3.3,1.5,6.6,2.3,9.9 c0.4,1.6,0.7,3.2,1.1,4.8c0,0.1,0.1,0.3,0.1,0.4c0.8,2.3,3.1,3.5,5.4,3.1c1.2-0.3,2.4-0.6,3.6-0.8c4.3-1,8.6-2,13-3 c0.5-0.1,1-0.2,1.5-0.4c1.6-0.4,2.9-1.5,3.4-3.1c0.3-1,0.1-2-0.1-3c-0.4-2-0.9-3.9-1.4-5.9c-0.8-3.5-1.6-7.1-2.4-10.6 c-1-4.5-2.1-8.9-3.1-13.4c-1.1-4.8-2.2-9.6-3.3-14.4c-1-4.5-2.1-9-3.1-13.5c-0.8-3.6-1.7-7.2-2.5-10.8c-0.5-2.1-1-4.2-1.4-6.2 C74.1,4,74,3.7,74,3.4c-0.3-1.1-1.6-1.9-2.7-1.5C70.1,2.2,69.5,3.4,69.7,4.6"/>
<path d="M69.7,4.6c0.8,3.3,1.5,6.6,2.3,10c0.1,0.5,0.2,1,0.3,1.4c0.5-0.9,1-1.8,1.5-2.7c-2.6,0.6-5.1,1.2-7.7,1.8 c-4.1,0.9-8.2,1.9-12.3,2.8c-0.9,0.2-1.9,0.4-2.8,0.6c0.9,0.5,1.8,1,2.7,1.5c-0.5-2.2-1-4.4-1.5-6.6c-0.3-1.3-0.6-2.6-0.9-3.9 c-0.1-0.3-0.1-0.5-0.2-0.8c0,0,0-0.1,0-0.2c0,0.1,0,0.2,0,0.3V8.5c0,0.1,0,0.2,0,0.3c0-0.1,0-0.2,0.1-0.3c0.1-0.4-0.2,0.4,0,0 c0.2-0.4-0.4,0.3,0,0c0,0,0.1-0.1,0.1-0.1c0.2-0.2,0.1-0.1-0.1,0.1c0.1,0,0.2-0.1,0.2-0.1c-0.3,0.1-0.4,0.1-0.1,0.1 c4.7-1.1,9.4-2.2,14.1-3.3c1.2-0.3,2.4-0.5,3.6-0.8c0.2-0.1,0.5-0.1,0.7-0.2c0,0,0,0,0,0c0.5-0.1-0.5,0,0,0c0.4,0-0.5-0.1,0.1,0 c0.4,0.1-0.4-0.2,0,0c0.2,0.1,0.2,0.1-0.1-0.1c0.1,0.1,0.1,0.1,0.2,0.2c0.3,0.3-0.3-0.4,0,0c0.1,0.2,0.1,0.2,0-0.2 C69.7,4.4,69.7,4.5,69.7,4.6c0.3,1.1,1.6,1.9,2.7,1.5c1.1-0.4,1.8-1.5,1.5-2.7c-0.5-1.9-2.1-3.2-4.1-3.4c-0.5-0.1-1.1,0-1.6,0.2 c-0.9,0.2-1.7,0.4-2.6,0.6c-3.1,0.7-6.2,1.4-9.3,2.1c-2.1,0.5-4.1,0.9-6.2,1.4c-1.2,0.3-2.3,1.1-2.9,2.2c-0.6,1.1-0.7,2.2-0.4,3.4 c0.2,1,0.5,2,0.7,3.1c0.6,2.7,1.2,5.4,1.9,8c0,0.1,0,0.1,0,0.2c0.3,1.2,1.6,1.8,2.7,1.5c2.6-0.6,5.1-1.2,7.7-1.8 c4.1-0.9,8.2-1.9,12.3-2.8c0.9-0.2,1.9-0.4,2.8-0.6c1.2-0.3,1.8-1.6,1.5-2.7c-0.8-3.3-1.5-6.6-2.3-10c-0.1-0.5-0.2-1-0.3-1.4 c-0.3-1.1-1.6-1.9-2.7-1.5C70.1,2.2,69.5,3.4,69.7,4.6"/>
<path d="M78.7,72.9c0,0,0,0.1,0,0.1C78.8,73.3,78.8,73.3,78.7,72.9c0,0.1,0,0.2,0,0.3c0,0.2,0,0.5,0,0.7 c0,0.3-0.1,0.1,0-0.2c0,0.1-0.1,0.3-0.1,0.4c0,0.1,0,0.2-0.1,0.3c0,0.1,0,0.2-0.1,0.2c-0.1,0.2-0.1,0.2,0.1-0.2 c-0.1,0.1-0.2,0.4-0.3,0.6c-0.1,0.1-0.1,0.2-0.2,0.3c-0.1,0.3,0.4-0.4,0.1-0.1c-0.1,0.2-0.3,0.3-0.4,0.5c-0.1,0.1-0.2,0.2-0.3,0.3 c0.3-0.2,0.3-0.2,0.2-0.1c-0.1,0-0.1,0.1-0.2,0.1c-0.1,0.1-0.5,0.2-0.6,0.3c0.1,0,0.2-0.1,0.3-0.1c-0.1,0-0.2,0.1-0.3,0.1 c-0.1,0-0.2,0.1-0.3,0.1c-0.1,0-0.2,0-0.3,0.1c-0.5,0.1,0.4,0,0.1,0c-0.3,0-0.5,0-0.8,0c-0.1,0-0.2,0-0.3,0c0.5-0.1,0.3,0,0.1,0 c-0.2,0-0.4-0.1-0.6-0.2c-0.3-0.1,0.1,0,0.2,0.1c-0.1-0.1-0.3-0.1-0.4-0.2c-0.1,0-0.2-0.1-0.3-0.2c-0.1,0-0.1-0.1-0.2-0.1 c-0.2-0.1-0.1-0.1,0.1,0.1c-0.1-0.2-0.3-0.3-0.5-0.4l-0.3-0.3c-0.2-0.2,0.1,0,0.1,0.1c0-0.1-0.3-0.4-0.4-0.6c0,0,0-0.1-0.1-0.1 c-0.1-0.2-0.1-0.2,0.1,0.2c0-0.1-0.1-0.3-0.1-0.4c0-0.1-0.1-0.3-0.1-0.4c0-0.1,0-0.5,0-0.1c0,0.4,0,0,0-0.1c0-0.1,0-0.3,0-0.4 c0-0.1,0-0.2,0-0.3c0-0.2,0.2-0.5,0,0.1c0.1-0.2,0.1-0.5,0.2-0.8c0,0,0.1-0.2,0.1-0.2c0,0.1-0.1,0.2-0.1,0.3c0-0.1,0.1-0.2,0.1-0.2 c0.1-0.2,0.2-0.4,0.3-0.6c0.2-0.4-0.3,0.4,0,0c0.1-0.1,0.1-0.1,0.2-0.2c0.2-0.2,0.4-0.4,0.6-0.5c-0.5,0.4,0,0,0.2-0.1 c0.1,0,0.3-0.1,0.4-0.2c-0.1,0.1-0.4,0.2-0.1,0c0.2-0.1,0.4-0.1,0.7-0.2c0.3-0.1,0.3,0.1-0.1,0c0.1,0,0.3,0,0.5,0h0.3 c0.1,0,0.7,0,0.2,0c-0.4,0,0,0,0.1,0c0.1,0,0.3,0.1,0.4,0.1c0.1,0,0.2,0.1,0.3,0.1c-0.3-0.1-0.4-0.2-0.2-0.1c0.1,0,0.1,0.1,0.2,0.1 c0.1,0,0.2,0.1,0.3,0.2c0.1,0,0.5,0.4,0.2,0.1c-0.3-0.3,0,0,0.1,0.1c0.1,0.1,0.2,0.2,0.3,0.3c0.1,0.1,0.1,0.2,0.2,0.2 c0.3,0.3-0.3-0.4,0,0c0.1,0.1,0.1,0.2,0.2,0.3c0,0.1,0.1,0.2,0.1,0.2c0.1,0.2,0.1,0.2,0,0c-0.1-0.4,0,0,0,0.1 C78.7,72.6,78.7,72.8,78.7,72.9c0.3,1.1,1.6,1.9,2.7,1.5c1.2-0.4,1.8-1.5,1.5-2.7c-0.8-3.1-3.4-5.2-6.5-5.6 c-2.9-0.3-5.9,1.3-7.2,3.9c-1.4,2.8-1,6.2,1.3,8.5c2.2,2.3,5.6,2.7,8.4,1.5c3.2-1.4,4.7-5,4-8.3c-0.2-1.1-1.6-1.9-2.7-1.5 C79.1,70.6,78.5,71.7,78.7,72.9"/>
</g>
</svg>