<svg height='40px' width='40px' fill="#2c6789"  x="0px" y="0px" viewBox="0 0 100 100">
<g transform="translate(0,-952.36218)">
<path style="color:#000000;enable-background:accumulate;" d="m 14.99975,976.36227 c -0.7721,0 -1.5107,0.1429 -2.1875,0.4062 l 35.1563,29.81263 c 1.2679,1.0738 2.8603,1.0726 4.125,0 l 35.0937,-29.81263 c -0.6768,-0.2633 -1.4154,-0.4062 -2.1875,-0.4062 l -70,0 z m -5.9375002,5.125 c -0.041,0.2832 -0.062,0.5802 -0.062,0.875 l 0,40.00003 c 0,0.841 0.159,1.6498 0.4688,2.375 L 33.87525,1002.4873 9.0627498,981.48727 z m 81.8750002,0 -24.75,20.96883 24.3437,22.2812 c 0.3098,-0.7252 0.4688,-1.534 0.4688,-2.375 l 0,-40.00003 c 0,-0.2948 -0.022,-0.5918 -0.062,-0.875 z m -29.3437,24.87503 -5.625,4.7812 c -3.4108,2.8938 -8.4647,2.8887 -11.875,0 l -5.5938,-4.75 -24.0625,21.9376 c 0.1826,0.016 0.3755,0.031 0.5625,0.031 l 70,0 c 0.1974,0 0.4014,-0.013 0.5938,-0.031 l -24,-21.9688 z" fill="#2c6789" stroke="none" marker="none" visibility="visible" display="inline" overflow="visible"></path>
</g>
</svg>