<svg xmlns="http://www.w3.org/2000/svg" xmlns:xlink="http://www.w3.org/1999/xlink" version="1.1" x="0px" y="0px" viewBox="0 0 100 100" enable-background="new 0 0 100 100" xml:space="preserve"><path d="M50.011,4.999c11.41,0,20.653,8.825,20.653,20.674c0,11.858-9.243,20.659-20.653,20.659  c-11.417,0-20.675-8.801-20.675-20.659C29.336,13.824,38.595,4.999,50.011,4.999z"></path><path d="M50.014,94.999c-0.002,0-0.005,0-0.007,0s-0.004,0-0.007,0s-0.005,0-0.007,0s-0.004,0-0.007,0  c-40.964-0.003-41.91-6.622-41.91-11.374c0-4.753,5.329-19.747,8.391-23.128c7.426-8.234,16.627-8.36,33.533-8.312  c16.907-0.049,26.106,0.077,33.533,8.312c3.063,3.384,8.391,18.375,8.391,23.128C91.924,88.377,90.978,94.996,50.014,94.999z"></path></svg>