<svg width="41" height="41" viewBox="0 0 100 100" preserveAspectRatio="none">
<g>
<path d="M71.9,37.5c0-13.8-11.2-25-25-25s-25,11.2-25,25s11.2,25,25,25C60.7,62.5,71.9,51.3,71.9,37.5 M46.9,59.4 C34.8,59.4,25,49.6,25,37.5s9.8-21.9,21.9-21.9s21.9,9.8,21.9,21.9C68.7,49.6,59,59.4,46.9,59.4"/>
<path d="M45.3,1.6v6.3c0,0.9,0.7,1.6,1.6,1.6c0.9,0,1.6-0.7,1.6-1.6V1.6c0-0.9-0.7-1.6-1.6-1.6C46,0,45.3,0.7,45.3,1.6 "/>
<path d="M45.3,67.2v6.3c0,0.9,0.7,1.6,1.6,1.6c0.9,0,1.6-0.7,1.6-1.6v-6.3c0-0.9-0.7-1.6-1.6-1.6 C46,65.6,45.3,66.3,45.3,67.2"/>
<path d="M76.6,35.9c-0.9,0-1.6,0.7-1.6,1.6c0,0.9,0.7,1.6,1.6,1.6h6.3c0.9,0,1.6-0.7,1.6-1.6c0-0.9-0.7-1.6-1.6-1.6 H76.6z"/>
<path d="M10.9,35.9c-0.9,0-1.6,0.7-1.6,1.6c0,0.9,0.7,1.6,1.6,1.6h6.3c0.9,0,1.6-0.7,1.6-1.6c0-0.9-0.7-1.6-1.6-1.6 H10.9z"/>
<path d="M69,57.4c-0.6-0.6-1.6-0.6-2.2,0c-0.6,0.6-0.6,1.6,0,2.2l4.4,4.4c0.6,0.6,1.6,0.6,2.2,0c0.6-0.6,0.6-1.6,0-2.2 L69,57.4z"/>
<path d="M20.4,11c-0.6,0.6-0.6,1.6,0,2.2l4.4,4.4c0.6,0.6,1.6,0.6,2.2,0c0.6-0.6,0.6-1.6,0-2.2L22.6,11 C22,10.4,21,10.4,20.4,11"/>
<path d="M73.4,11c-0.6-0.6-1.6-0.6-2.2,0l-4.4,4.4c-0.6,0.6-0.6,1.6,0,2.2c0.6,0.6,1.6,0.6,2.2,0c0,0,0,0,0,0l4.4-4.4 C74,12.6,74,11.6,73.4,11"/>
<path d="M21.5,64.5c0.4,0,0.8-0.2,1.1-0.5l4.4-4.4c0.6-0.6,0.6-1.6,0-2.2c-0.6-0.6-1.6-0.6-2.2,0l-4.4,4.4 c-0.6,0.6-0.6,1.6,0,2.2C20.7,64.3,21,64.5,21.5,64.5"/>
<path d="M56.3,37.5H37.5c-0.9,0-1.6,0.7-1.6,1.6c0,6,4.9,10.9,10.9,10.9s10.9-4.9,10.9-10.9 C57.8,38.2,57.1,37.5,56.3,37.5 M46.9,46.9c-3.7,0-6.9-2.6-7.7-6.3h15.3C53.8,44.3,50.6,46.9,46.9,46.9"/>
<path d="M66.1,90.6h20.2c4.1,0,7.4-3.4,7.4-7.6c0-4.2-3.3-7.5-7.3-7.6c-1.6-4-5.5-6.7-9.8-6.7c-4.9,0-9,3.4-10.3,8 c0,0-0.1,0-0.1,0c-3.7,0-6.8,3.1-6.8,6.9C59.4,87.5,62.4,90.6,66.1,90.6 M66.1,79.9c0.3,0,0.6,0,0.9,0.1c0.8,0.2,1.7-0.3,1.9-1.1 c0-0.1,0-0.2,0-0.2c0.5-3.9,3.7-6.8,7.5-6.8c3.3,0,6.3,2.3,7.3,5.6c0.2,0.8,1,1.3,1.8,1.1c0.2,0,0.5-0.1,0.7-0.1 c2.4,0,4.3,2,4.3,4.5s-1.9,4.5-4.3,4.5H66.1c-2,0-3.6-1.7-3.6-3.8C62.5,81.6,64.1,79.9,66.1,79.9"/>
<path d="M6.8,90.6H27c4.1,0,7.4-3.4,7.4-7.6c0-4.2-3.3-7.5-7.3-7.6c-1.6-4-5.5-6.7-9.8-6.7c-4.9,0-9,3.4-10.3,8 c0,0-0.1,0-0.1,0C3,76.8,0,79.9,0,83.7C0,87.5,3,90.6,6.8,90.6 M6.8,79.9c0.3,0,0.6,0,0.9,0.1c0.8,0.2,1.7-0.3,1.9-1.1 c0-0.1,0-0.2,0-0.2c0.5-3.9,3.7-6.8,7.5-6.8c3.3,0,6.3,2.3,7.3,5.6c0.2,0.8,1,1.3,1.8,1.1c0.2,0,0.5-0.1,0.7-0.1 c2.4,0,4.3,2,4.3,4.5s-1.9,4.5-4.3,4.5H6.8c-2,0-3.6-1.7-3.6-3.8C3.1,81.6,4.8,79.9,6.8,79.9"/>
<path d="M40.6,31.3c0.9,0,1.6,0.7,1.6,1.6c0,0.9-0.7,1.6-1.6,1.6c-0.9,0-1.6-0.7-1.6-1.6C39.1,32,39.8,31.3,40.6,31.3"/>
<path d="M53.1,31.3c0.9,0,1.6,0.7,1.6,1.6c0,0.9-0.7,1.6-1.6,1.6c-0.9,0-1.6-0.7-1.6-1.6C51.6,32,52.3,31.3,53.1,31.3"/>
</g>
</svg>
